<?xml version="1.0" encoding="iso-8859-1"?>
<!-- Generator: Adobe Illustrator 19.1.0, SVG Export Plug-In . SVG Version: 6.00 Build 0)  -->
<svg version="1.1" id="Capa_1" xmlns="http://www.w3.org/2000/svg" xmlns:xlink="http://www.w3.org/1999/xlink" x="0px" y="0px"
	 viewBox="0 0 487.8 487.8" style="enable-background:new 0 0 487.8 487.8;" xml:space="preserve" fill="#8b949e">
<g>
	<g>
		<path d="M468.4,198H339.9c-10.7,0-19.4,8.7-19.4,19.4v192.9c0,10.7,8.7,19.4,19.4,19.4h128.5c10.7,0,19.4-8.7,19.4-19.4V217.5
			C487.8,206.7,479.1,198,468.4,198z M365.6,405.1h-20.4V222.7h20.4V405.1z M463.1,405.1h-57.4V222.7h57.4V405.1z"/>
		<path d="M44.8,102.9h317.4v66.8H407V90.9c0-18.2-14.7-32.9-32.9-32.9H32.9C14.7,58,0,72.7,0,90.9v230.7
			c0,18.2,14.7,32.9,32.9,32.9h133.9v36.7h-26.1c-4.4,0-7.9,3.5-7.9,7.9v22.8c0,4.4,3.5,7.9,7.9,7.9h125.8c4.4,0,7.9-3.5,7.9-7.9
			V399c0-4.4-3.5-7.9-7.9-7.9h-26.1v-36.7h49.3v-45.2H44.8V102.9z"/>
	</g>
</g>
<g>
</g>
<g>
</g>
<g>
</g>
<g>
</g>
<g>
</g>
<g>
</g>
<g>
</g>
<g>
</g>
<g>
</g>
<g>
</g>
<g>
</g>
<g>
</g>
<g>
</g>
<g>
</g>
<g>
</g>
</svg>
