<?xml version='1.0' encoding='utf-8'?>
<svg version="1.1" xmlns="http://www.w3.org/2000/svg" viewBox="0 0 512 512" xmlns:xlink="http://www.w3.org/1999/xlink" enable-background="new 0 0 512 512">
  <g>
    <g>
      <path d="m457.3,257.8c49.8-87.3 57.8-171 13.5-216-51.4-52.3-136.2-31.3-213.3,13.1-87.7-50.3-172.4-58.3-215.7-12.5-52.4,55.4-30.9,139.2 12.2,213.7-49.5,87.1-57.2,171.1-11.6,214.1 55.3,52.3 138.9,30.9 213.3-12 86.7,49 169.7,56.6 214.5,12.6 52.2-51.3 31.3-135.9-12.9-213zm-22.2-180.3c21.4,22.8 17.5,71.3-10.7,129.8-17.5-23.9-36.3-46-54.6-64.6-20.9-21.3-42.7-40.2-64.7-56.6 53.6-25.4 105.6-34.7 130-8.6zm-357.6,.6c21.7-22.5 70.1-18.3 128.8,10.2-23.5,17.2-45.2,35.8-63.5,53.8-21.6,21.3-40.8,43.4-57.4,65.8-24.9-51.4-34.5-102.3-7.9-129.8zm.6,356.4c-22.3-21.5-18.4-69.3 9.6-127.4 17.8,23.9 36.7,45.6 54.4,63.4 21.2,21.2 43.2,40.1 65.4,56.4-51.3,24.7-101.9,34.1-129.4,7.6zm99.7-99.7c-21.1-19.6-43.5-46.4-63-75.7 17.1-26.4 38.4-53.9 63.6-81.3 20.1-21.7 46.6-43.6 75.3-62.5 26.1,17 53.3,38.1 80.4,63.1 22,20.3 44.2,47.3 63.2,76.4-16.8,25.8-37.7,52.6-62.6,79.3-19.9,21.3-47.1,44.1-76.8,63.8-25.9-16.9-53-37.9-80.1-63.1zm256.7,100.3c-22.7,21.2-70.5,17.6-128.4-10 24.4-18 46.4-37.2 64.4-55.2 20.9-20.9 39.4-42.5 55.5-64.2 25.4,53.3 34.6,105.1 8.5,129.4z"/>
      <circle cx="256" cy="256" r="29.9"/>
    </g>
  </g>
</svg>
